<?xml version="1.0" encoding="iso-8859-1"?>
<!-- Generator: Adobe Illustrator 19.0.0, SVG Export Plug-In . SVG Version: 6.00 Build 0)  -->
<svg version="1.1" id="Capa_1" xmlns="http://www.w3.org/2000/svg" xmlns:xlink="http://www.w3.org/1999/xlink" x="0px" y="0px"
	 viewBox="0 0 512 512" style="enable-background:new 0 0 512 512;" xml:space="preserve">
<g>
	<g>
		<path d="M287,0c-8.284,0-15,6.716-15,15v211c0,8.284,6.716,15,15,15h210c8.284,0,15-6.716,15-15C512,101.875,411.273,0,287,0z
			 M302,211V30.574C397.616,37.919,474.164,114.883,481.435,211H302z"/>
	</g>
</g>
<g>
	<g>
		<path d="M314.792,478.395L242,283.293V76c0-8.284-6.716-15-15-15C103.476,61,0,161.147,0,286c0,123.919,102.473,226,227,226
			c27.176,0,53.763-4.818,79.021-14.322C313.759,494.767,317.683,486.142,314.792,478.395z M227,482c-108.626,0-197-87.925-197-196
			c0-102.529,80.354-186.831,182-194.44V286c0,1.79,0.32,3.566,0.946,5.244l68.309,183.083C263.699,479.424,245.512,482,227,482z"/>
	</g>
</g>
<g>
	<g>
		<path d="M497,271H287c-4.915,0-9.519,2.408-12.321,6.446c-2.804,4.038-3.45,9.192-1.732,13.798l73.739,197.639
			c2.912,7.802,11.601,11.706,19.336,8.795C453.336,464.829,512,379.762,512,286C512,277.716,505.284,271,497,271z M369.328,463.75
			L308.606,300.9h172.815C475.997,371.187,432.81,433.991,369.328,463.75z"/>
	</g>
</g>
<g>
</g>
<g>
</g>
<g>
</g>
<g>
</g>
<g>
</g>
<g>
</g>
<g>
</g>
<g>
</g>
<g>
</g>
<g>
</g>
<g>
</g>
<g>
</g>
<g>
</g>
<g>
</g>
<g>
</g>
</svg>
