<?xml version='1.0' encoding='utf-8'?>
<!DOCTYPE svg PUBLIC '-//W3C//DTD SVG 1.1//EN' 'http://www.w3.org/Graphics/SVG/1.1/DTD/svg11.dtd'>
<svg version="1.1" xmlns="http://www.w3.org/2000/svg" viewBox="0 0 512 512" xmlns:xlink="http://www.w3.org/1999/xlink" enable-background="new 0 0 512 512">
  <g>
    <g>
      <path d="m480.6,152.3h-19.4v-104.1c0-11.3-9.1-20.4-20.4-20.4-11.3,0-20.4,9.1-20.4,20.4v104.1h-82.8v-104.1c0-11.3-9.1-20.4-20.4-20.4s-20.4,9.1-20.4,20.4v104.1h-19.4c-11.3,0-20.4,9.1-20.4,20.4v93.9c0,60.1 43.8,110.2 101.2,120-3.8,41.2-38.6,73.6-80.8,73.6-44.8,0-81.2-36.4-81.2-81.2v-0.4-276.9c0-50-41.5-90.7-92.6-90.7s-92.6,40.7-92.6,90.7v276.9c0,11.3 9.1,20.4 20.4,20.4 11.3,0 20.4-9.1 20.4-20.4v-276.9c0-27.5 23.2-49.8 51.7-49.8s51.8,22.4 51.8,49.8v276.9 0.4c0,67.3 54.7,122 122,122 64.7,0 117.8-50.6 121.8-114.3 57.8-9.5 101.9-59.7 101.9-120.1v-93.9c0-11.2-9.1-20.4-20.4-20.4zm-20.4,114.3c0,44.6-36.3,80.9-80.9,80.9h-0.7c-44.6,0-80.9-36.3-80.9-80.9v-73.5h162.4v73.5z"/>
    </g>
  </g>
</svg>
